<?xml version="1.0" encoding="utf-8"?>
<!-- Generator: Adobe Illustrator 19.1.0, SVG Export Plug-In . SVG Version: 6.00 Build 0)  -->
<svg version="1.1" id="Layer_1" xmlns="http://www.w3.org/2000/svg" xmlns:xlink="http://www.w3.org/1999/xlink" x="0px" y="0px"
	 viewBox="0 0 100 52" style="enable-background:new 0 0 100 52;" xml:space="preserve">
<style type="text/css">
	.st0{fill:#004BE0;}
</style>
<g>
	<g>
		<path d="M7.4,51.4L7,50.1c-0.5,1-1.6,1.6-2.9,1.6c-2.6,0-4.1-1.9-4.1-4.1v-8.3c0-2.2,1.7-4.1,4.5-4.1s4.4,1.9,4.4,4.1V41H6v-1.8
			c0-0.8-0.5-1.4-1.5-1.4c-1,0-1.5,0.7-1.5,1.5v8.4c0,0.8,0.5,1.5,1.6,1.5c1,0,1.6-0.7,1.6-1.5v-2.2H4.6v-2.1H9v8H7.4z"/>
		<path d="M20.4,51.5c-1.2,0-1.6-0.9-1.6-2.3v-3c0-0.7-0.4-1.4-1.2-1.4h-1.5v6.5h-2.9V35.6H18c2.2,0,3.6,1.2,3.6,3.4v2.2
			c0,1.2-0.5,2.1-1.8,2.4c1.2,0.3,1.8,1.4,1.8,2.4V49c0,0.7,0.2,1.2,0.6,1.6v0.9H20.4z M18.7,39.2c0-0.7-0.3-1.1-1-1.1h-1.6v4.6h1.5
			c0.8,0,1.2-0.4,1.2-1.3V39.2z"/>
		<path d="M30.2,51.8c-2.8,0-4.5-1.8-4.5-4.3v-7.9c0-2.5,1.7-4.3,4.5-4.3c2.8,0,4.5,1.8,4.5,4.3v7.9C34.7,50,33,51.8,30.2,51.8z
			 M31.7,39.4c0-0.9-0.5-1.5-1.5-1.5c-0.9,0-1.5,0.6-1.5,1.5v8.3c0,0.9,0.5,1.5,1.5,1.5c1,0,1.5-0.6,1.5-1.5V39.4z"/>
		<path d="M44.1,51.4h-2.8l-3.4-15.8h3l1.9,10.9l2-10.9h2.9L44.1,51.4z"/>
		<path d="M51.1,51.4V35.6h7.5v2.5H54v3.9h3.2v2.3H54v4.4h4.6v2.6H51.1z"/>
		<path d="M74.3,51.4l-0.5-3.1H71l-0.6,3.1h-2.8l3.2-15.8h3.3l3.2,15.8H74.3z M72.4,39.9L71.4,46h2L72.4,39.9z"/>
		<path d="M85.5,51.4h-2.8l-3.4-15.8h3l1.9,10.9l2-10.9H89L85.5,51.4z"/>
		<path d="M92.5,51.4V35.6h7.5v2.5h-4.6v3.9h3.2v2.3h-3.2v4.4h4.6v2.6H92.5z"/>
	</g>
	<g>
		<rect x="32.2" y="0.5" class="st0" width="35.6" height="5.4"/>
		<rect x="32.2" y="9.7" class="st0" width="35.6" height="5.4"/>
		<g>
			<rect x="32.2" y="18.8" class="st0" width="14.2" height="5.4"/>
			<rect x="53.6" y="18.8" class="st0" width="14.2" height="5.4"/>
		</g>
	</g>
</g>
</svg>
