<?xml version="1.0" encoding="utf-8"?>
<!-- Generator: Adobe Illustrator 19.1.0, SVG Export Plug-In . SVG Version: 6.00 Build 0)  -->
<svg version="1.1" id="Layer_1" xmlns="http://www.w3.org/2000/svg" xmlns:xlink="http://www.w3.org/1999/xlink" x="0px" y="0px"
	 viewBox="0 0 150 150" style="enable-background:new 0 0 150 150;" xml:space="preserve">
<style type="text/css">
	.st0{fill:#FFFFFF;stroke:#004BE0;stroke-width:3;stroke-miterlimit:10;}
	.st1{fill:#004BE0;}
</style>
<circle class="st0" cx="74.7" cy="74.9" r="72.6"/>
<g>
	<path class="st1" d="M40.8,46.7l-3.5,3.6l-2.6-2.7l6.6-6.7h3.9v21.1h-4.5V46.7z"/>
	<path class="st1" d="M58.8,40.6c6,0,8.7,5.4,8.7,10.9s-2.7,10.9-8.7,10.9c-6,0-8.7-5.5-8.7-10.9S52.8,40.6,58.8,40.6z M58.8,44.6
		c-3,0-4.2,3-4.2,6.9s1.1,6.9,4.2,6.9c3,0,4.1-3,4.1-6.9S61.8,44.6,58.8,44.6z"/>
	<path class="st1" d="M80,40.6c6,0,8.7,5.4,8.7,10.9S86,62.4,80,62.4c-6,0-8.7-5.5-8.7-10.9S74,40.6,80,40.6z M80,44.6
		c-3,0-4.2,3-4.2,6.9s1.1,6.9,4.2,6.9c3,0,4.1-3,4.1-6.9S83,44.6,80,44.6z"/>
	<path class="st1" d="M97.6,40.6c3.3,0,5.4,2.3,5.4,5.3c0,2.9-2.1,5.2-5.4,5.2c-3.2,0-5.3-2.2-5.3-5.2C92.2,43,94.3,40.6,97.6,40.6z
		 M97.6,43.1c-1.4,0-2.5,1-2.5,2.8c0,1.6,1.1,2.7,2.5,2.7c1.5,0,2.5-1.1,2.5-2.7C100.1,44.2,99,43.1,97.6,43.1z M109,41h2.4
		L97.9,62.1h-2.4L109,41z M109.2,51.9c3.2,0,5.4,2.3,5.4,5.3c0,2.9-2.2,5.2-5.4,5.2s-5.3-2.3-5.3-5.2
		C103.8,54.2,106,51.9,109.2,51.9z M109.2,54.4c-1.5,0-2.5,1.1-2.5,2.8c0,1.7,1,2.8,2.5,2.8c1.5,0,2.5-1,2.5-2.8
		C111.7,55.5,110.6,54.4,109.2,54.4z"/>
</g>
<g>
	<path class="st1" d="M39.3,90.6l-2.3,6h-0.8l-2.3-6v6h-1.8v-8.3h2.5l2,5.2l2-5.2H41v8.3h-1.8V90.6z"/>
	<path class="st1" d="M47.2,88.2c2.5,0,4.3,1.8,4.3,4.3c0,2.5-1.8,4.3-4.3,4.3c-2.5,0-4.3-1.8-4.3-4.3C42.9,90,44.7,88.2,47.2,88.2z
		 M47.2,89.7c-1.5,0-2.5,1.2-2.5,2.7c0,1.5,1,2.7,2.5,2.7s2.5-1.2,2.5-2.7C49.8,90.9,48.8,89.7,47.2,89.7z"/>
	<path class="st1" d="M55.2,91v5.6h-1.8v-8.3h1.8l3.8,5.4v-5.4h1.8v8.3h-1.7L55.2,91z"/>
	<path class="st1" d="M63.1,88.3H69v1.5h-4.1v1.8h4v1.5h-4v1.9H69v1.5h-5.9V88.3z"/>
	<path class="st1" d="M73.3,93.2l-3.2-4.9h2l2.1,3.3l2-3.3h2l-3.2,4.9v3.4h-1.8V93.2z"/>
	<path class="st1" d="M83.4,88.3h4.4c1.6,0,2.4,1,2.4,2.1c0,1-0.6,1.7-1.4,1.9c0.9,0.1,1.6,1,1.6,2c0,1.2-0.8,2.2-2.4,2.2h-4.5V88.3
		z M87.4,91.6c0.6,0,1-0.4,1-0.9c0-0.5-0.4-0.9-1-0.9h-2.2v1.8H87.4z M87.5,95.1c0.7,0,1.1-0.4,1.1-1c0-0.5-0.4-1-1.1-1h-2.3v2H87.5
		z"/>
	<path class="st1" d="M97.6,95.2h-3.7l-0.5,1.4h-1.9l3.2-8.3h2.2l3.2,8.3h-1.9L97.6,95.2z M94.3,93.6h2.7l-1.4-3.8L94.3,93.6z"/>
	<path class="st1" d="M100.6,92.5c0-2.5,1.9-4.3,4.4-4.3c1.9,0,2.9,1,3.5,2l-1.5,0.7c-0.3-0.7-1.1-1.2-2-1.2c-1.4,0-2.5,1.2-2.5,2.7
		c0,1.6,1.1,2.7,2.5,2.7c0.9,0,1.7-0.5,2-1.2l1.5,0.7c-0.6,1-1.6,2-3.5,2C102.5,96.7,100.6,95,100.6,92.5z"/>
	<path class="st1" d="M112.6,93.3l-0.6,0.8v2.5h-1.8v-8.3h1.8V92l2.9-3.7h2.2l-3.3,3.9l3.5,4.4h-2.2L112.6,93.3z"/>
	<path class="st1" d="M39.9,104c1.7,0,2.8,0.8,3.4,1.8l-1.5,0.8c-0.4-0.6-1.1-1-2-1c-1.5,0-2.6,1.2-2.6,2.7c0,1.6,1.1,2.7,2.6,2.7
		c0.8,0,1.4-0.3,1.8-0.6v-1h-2.2v-1.5h4v3.2c-0.8,0.9-2,1.6-3.5,1.6c-2.4,0-4.4-1.7-4.4-4.3C35.5,105.7,37.5,104,39.9,104z"/>
	<path class="st1" d="M45.5,104.1h1.8v4.9c0,1.2,0.6,2,1.9,2c1.3,0,1.9-0.8,1.9-2v-4.9h1.8v5c0,2.1-1.2,3.5-3.7,3.5
		c-2.5,0-3.7-1.4-3.7-3.5V104.1z"/>
	<path class="st1" d="M60,111h-3.7l-0.5,1.4h-1.9l3.2-8.3h2.2l3.2,8.3h-1.9L60,111z M56.8,109.5h2.7l-1.4-3.8L56.8,109.5z"/>
	<path class="st1" d="M66.9,109.4h-1.3v3h-1.8v-8.3h3.9c1.7,0,2.8,1.1,2.8,2.7c0,1.5-0.9,2.3-1.8,2.5l1.9,3.2h-2L66.9,109.4z
		 M67.5,105.6h-1.9v2.3h1.9c0.7,0,1.2-0.4,1.2-1.1S68.2,105.6,67.5,105.6z"/>
	<path class="st1" d="M77.7,111H74l-0.5,1.4h-1.9l3.2-8.3H77l3.2,8.3h-1.9L77.7,111z M74.5,109.5h2.7l-1.4-3.8L74.5,109.5z"/>
	<path class="st1" d="M83.3,106.8v5.6h-1.8v-8.3h1.8l3.8,5.4v-5.4H89v8.3h-1.7L83.3,106.8z"/>
	<path class="st1" d="M93.2,105.7h-2.4v-1.6h6.6v1.6H95v6.7h-1.8V105.7z"/>
	<path class="st1" d="M99.1,104.1h5.9v1.5h-4.1v1.8h4v1.5h-4v1.9h4.1v1.5h-5.9V104.1z"/>
	<path class="st1" d="M107,104.1h5.9v1.5h-4.1v1.8h4v1.5h-4v1.9h4.1v1.5H107V104.1z"/>
</g>
<rect x="26.1" y="75.9" class="st1" width="97.2" height="1.1"/>
</svg>
